<?xml version="1.0" encoding="UTF-8"?>
<svg width="24px" height="24px" viewBox="0 0 24 24" version="1.1" xmlns="http://www.w3.org/2000/svg">
    <g stroke="none" stroke-width="1" fill="none" fill-rule="evenodd">
        <path d="M8,2 C9.1045695,2 10,2.8954305 10,4 C10,5.1045695 9.1045695,6 8,6 C6.8954305,6 6,5.1045695 6,4 C6,2.8954305 6.8954305,2 8,2 Z M8,4 L8,19 L10,21 M8,19 L6,21 M8,8 L8,14 C8,15.1045695 7.5522847,16 7,16 C6.44771525,16 6,15.1045695 6,14 L6,13 C6,11.8954305 6.44771525,11 7,11 C7.5522847,11 8,11.8954305 8,13 L8,14" stroke="#000000" stroke-width="1.5" stroke-linecap="round" stroke-linejoin="round"></path>
    </g>
</svg>
